<svg id="Layer_1" data-name="Layer 1" xmlns="http://www.w3.org/2000/svg" viewBox="0 0 82 80.89">
    <defs>
        <style>.cls-1{fill:#fff;}</style>
    </defs>
    <title>cookie_icon</title>
    <path class="cls-1" d="M41,80.89a41,41,0,0,1-17.64-78,3.58,3.58,0,0,1,3.19,0A3.62,3.62,0,0,1,28.47,5.5a6.82,6.82,0,0,0,7.1,5.88A6.58,6.58,0,0,0,42,7.65a3.62,3.62,0,0,1,6.87,1.69c-.07,2.77.69,5.25,2,6.65,1.8,1.84,4.92,2,9.07.48A3.62,3.62,0,0,1,64,22.11a7.3,7.3,0,0,0-.39,7.73,9.25,9.25,0,0,0,8.53,5.22A9,9,0,0,0,76.52,34a3.62,3.62,0,0,1,5.33,2.92l0,.45c.06.84.12,1.67.12,2.52A41,41,0,0,1,41,80.89ZM23,11.4A33.75,33.75,0,1,0,74.7,42.11a17.9,17.9,0,0,1-2.55.18,16.56,16.56,0,0,1-15-9.28,15.59,15.59,0,0,1-1.58-8.3h-.61A12.59,12.59,0,0,1,45.69,21a14,14,0,0,1-2.76-4.27,14.73,14.73,0,0,1-7.36,1.85A13.91,13.91,0,0,1,23,11.4Z"/>
    <path class="cls-1" d="M79,6.73a3,3,0,1,1-3-3A3,3,0,0,1,79,6.73Z"/>
    <circle class="cls-1" cx="23.31" cy="31.01" r="5.12"/>
    <circle class="cls-1" cx="27.03" cy="51.15" r="5.12"/>
    <circle class="cls-1" cx="45.82" cy="57.58" r="5.12"/>
    <circle class="cls-1" cx="43.52" cy="37.11" r="5.12"/>
    <path class="cls-1" d="M64.41,4.73A4.72,4.72,0,1,1,59.69,0,4.71,4.71,0,0,1,64.41,4.73Z"/>
    <circle class="cls-1" cx="76.57" cy="22.71" r="3.32"/>
</svg>
